<?xml version="1.0" encoding="utf-8"?>
<!-- Generator: Adobe Illustrator 26.2.1, SVG Export Plug-In . SVG Version: 6.00 Build 0)  -->
<svg version="1.1" id="레이어_1" xmlns="http://www.w3.org/2000/svg" xmlns:xlink="http://www.w3.org/1999/xlink" x="0px"
	 y="0px" viewBox="0 0 1094.19 947.55" style="enable-background:new 0 0 1094.19 947.55;" xml:space="preserve">
<style type="text/css">
	.st0{fill:#387FA3;}
	.st1{fill:#4EACB7;}
	.st2{fill:#E0786C;}
	.st3{fill:#E7B89A;}
</style>
<g>
	<path class="st0" d="M105.01,742.5c-12.36,0-24.92-2.2-37.16-6.83C13.62,715.14-13.7,654.53,6.83,600.29
		c35.98-95.03,93.19-180.23,165.44-246.39c42.77-39.16,109.18-36.24,148.35,6.53c39.16,42.77,36.24,109.19-6.53,148.35
		c-48.13,44.07-86.46,101.43-110.86,165.87C187.33,716.64,147.4,742.5,105.01,742.5z"/>
	<path class="st1" d="M243.21,536.34c-28.42,0-56.76-11.47-77.47-34.09c-39.16-42.77-36.24-109.19,6.53-148.35
		c51.19-46.88,108.76-83.51,171.11-108.88c65.16-26.51,133.73-39.96,203.79-39.96c57.99,0,105,47.01,105,105s-47.01,105-105,105
		c-42.8,0-84.73,8.23-124.65,24.47c-39.19,15.95-75.67,39.24-108.42,69.23C293.94,527.23,268.53,536.34,243.21,536.34z"/>
	<g>
		<path class="st2" d="M547.09,947.55c-55.16,0-108.72-10.83-159.2-32.18c-48.71-20.6-92.43-50.07-129.95-87.59
			c-37.52-37.52-66.99-81.24-87.59-129.95c-21.35-50.48-32.18-104.04-32.18-159.2V105c0-57.99,47.01-105,105-105s105,47.01,105,105
			v433.63c0,109.68,89.23,198.91,198.91,198.91c109.68,0,198.92-89.23,198.92-198.91V431.34c0-57.99,47.01-105,105-105
			s105,47.01,105,105v107.29c0,55.16-10.83,108.72-32.18,159.2c-20.6,48.71-50.07,92.43-87.59,129.95
			c-37.52,37.52-81.24,66.99-129.95,87.59C655.81,936.72,602.25,947.55,547.09,947.55z"/>
	</g>
	<path class="st3" d="M851.01,536.34c-57.99,0-105-47.01-105-105V105c0-57.99,47.01-105,105-105s105,47.01,105,105v326.34
		C956.01,489.33,909,536.34,851.01,536.34z"/>
	<path class="st1" d="M989.18,742.16c-42.37,0-82.27-25.82-98.19-67.79c-29.29-77.21-77.32-142.57-138.9-189.02
		c-60.96-45.98-131.82-70.28-204.92-70.28c-57.99,0-105-47.01-105-105s47.01-105,105-105c119.1,0,233.68,38.94,331.37,112.61
		c93.24,70.32,165.45,167.9,208.8,282.2c20.57,54.22-6.71,114.85-60.93,135.42C1014.14,739.95,1001.55,742.16,989.18,742.16z"/>
</g>
</svg>
