<?xml version="1.0" encoding="utf-8"?>
<!-- Generator: Adobe Illustrator 26.2.1, SVG Export Plug-In . SVG Version: 6.00 Build 0)  -->
<svg version="1.1" id="레이어_1" xmlns="http://www.w3.org/2000/svg" xmlns:xlink="http://www.w3.org/1999/xlink" x="0px"
	 y="0px" viewBox="0 0 947.55 947.55" style="enable-background:new 0 0 947.55 947.55;" xml:space="preserve">
<style type="text/css">
	.st0{fill:#F6F6F6;}
	.st1{fill:#27282F;}
</style>
<g>
	<path class="st0" d="M790.81,947.55H156.74C70.17,947.55,0,877.37,0,790.81V156.74C0,70.17,70.17,0,156.74,0h634.07
		c86.56,0,156.74,70.17,156.74,156.74v634.07C947.55,877.37,877.37,947.55,790.81,947.55z"/>
	<g>
		<path class="st1" d="M194.37,630.18c-7.81,0-15.75-1.39-23.49-4.32c-34.28-12.98-51.54-51.28-38.56-85.56
			c22.74-60.06,58.89-113.91,104.56-155.72c27.03-24.75,69.01-22.91,93.76,4.12c24.75,27.03,22.9,69.01-4.12,93.76
			c-30.42,27.85-54.65,64.11-70.07,104.83C246.4,613.84,221.16,630.18,194.37,630.18z"/>
		<path class="st1" d="M281.71,499.89c-17.96,0-35.87-7.25-48.96-21.55c-24.75-27.03-22.9-69.01,4.12-93.76
			c32.35-29.63,68.74-52.78,108.14-68.81c41.18-16.76,84.52-25.25,128.8-25.25c36.65,0,66.36,29.71,66.36,66.36
			s-29.71,66.36-66.36,66.36c-27.05,0-53.55,5.2-78.78,15.47c-24.77,10.08-47.82,24.8-68.53,43.76
			C313.78,494.13,297.72,499.89,281.71,499.89z"/>
		<g>
			<path class="st1" d="M473.77,759.77c-34.86,0-68.71-6.84-100.62-20.34c-30.78-13.02-58.41-31.64-82.13-55.36
				c-23.71-23.71-42.34-51.34-55.36-82.13c-13.49-31.9-20.34-65.76-20.34-100.62V227.27c0-36.65,29.71-66.36,66.36-66.36
				s66.36,29.71,66.36,66.36v274.06c0,69.32,56.4,125.72,125.72,125.72c69.32,0,125.72-56.4,125.72-125.72v-67.81
				c0-36.65,29.71-66.36,66.36-66.36c36.65,0,66.36,29.71,66.36,66.36v67.81c0,34.86-6.84,68.71-20.34,100.62
				c-13.02,30.78-31.64,58.41-55.36,82.13c-23.71,23.71-51.34,42.34-82.13,55.36C542.49,752.93,508.63,759.77,473.77,759.77z"/>
		</g>
		<path class="st1" d="M665.85,499.89c-36.65,0-66.36-29.71-66.36-66.36V227.27c0-36.65,29.71-66.36,66.36-66.36
			c36.65,0,66.36,29.71,66.36,66.36v206.25C732.21,470.18,702.5,499.89,665.85,499.89z"/>
		<path class="st1" d="M753.17,629.96c-26.78,0-52-16.32-62.06-42.84c-18.51-48.8-48.87-90.11-87.79-119.46
			c-38.53-29.06-83.31-44.42-129.51-44.42c-36.65,0-66.36-29.71-66.36-66.36s29.71-66.36,66.36-66.36
			c75.27,0,147.69,24.61,209.43,71.17c58.93,44.44,104.56,106.12,131.97,178.35c13,34.27-4.24,72.58-38.51,85.58
			C768.95,628.57,761,629.96,753.17,629.96z"/>
	</g>
</g>
</svg>
